4D 54 68 64 00 00 00 06 00 01 00 02 01 E0 4D 54
72 6B 00 00 00 0B 00 FF 51 03 07 A1 20 00 FF 2F
00 4D 54 72 6B 00 00 00 3C 00 FF 03 0F 50 69 61
6E 6F 20 53 69 6D 70 6C 69 66 69 65 64 00 90 3C
60 81 60 80 3C 00 00 90 40 60 81 60 80 40 00 00
90 43 60 81 60 80 43 00 00 90 48 60 83 C0 80 48
00 00 FF 2F 00